<svg xmlns="http://www.w3.org/2000/svg" aria-hidden="true" focusable="false" role="presentation" class="icon icon-search" viewBox="0 0 147.1 148.2"><path d="M145.3 142.5l-33.1-31.6c24.9-25.6 24.4-66.6-1.3-91.6S44.3-5 19.3 20.6-5 87.2 20.6 112.2c24.1 23.5 62.3 24.5 87.7 2.4l33.3 31.8c1.1 1 2.8 1 3.8-.1 1-1 .9-2.7-.1-3.8zM6.7 65.9c0-32.7 26.5-59.2 59.2-59.2s59.2 26.5 59.2 59.2-26.5 59.2-59.2 59.2S6.7 98.6 6.7 65.9z" stroke="#000" stroke-width="2" stroke-miterlimit="10"/><path d="M65.9 30.9c-21.2 0-39.3 13.5-44 32.8l-.2.7.2.7c4.7 19.3 22.8 32.8 44 32.8s39.3-13.5 44-32.8l.2-.7-.2-.7c-4.7-19.3-22.8-32.8-44-32.8zm0 61.3c-18.1 0-34-11.7-38.3-27.8 4.2-16.2 20.2-27.8 38.3-27.8s34.1 11.6 38.3 27.8C100 80.6 84 92.2 65.9 92.2z" stroke="#000" stroke-width="2" stroke-linejoin="round"/><circle cx="65.9" cy="64.1" r="18.7"/></svg>