<svg xmlns="http://www.w3.org/2000/svg" aria-hidden="true" focusable="false" role="presentation" class="icon icon-login" viewBox="0 0 145.5 145.5"><style>.st0{stroke:#000;stroke-width:2;stroke-miterlimit:10}</style><path class="st0" d="M72.8 144.5C33.1 144.5 1 112.4 1 72.8 1 33.1 33.1 1 72.8 1s71.8 32.1 71.8 71.8c-.1 39.6-32.2 71.7-71.8 71.7zm0-138.1C36.1 6.4 6.4 36.1 6.4 72.8s29.7 66.4 66.4 66.4 66.4-29.7 66.4-66.4c-.1-36.7-29.8-66.4-66.4-66.4z"/><circle class="st0" cx="39.9" cy="61.2" r="8.9"/><circle class="st0" cx="105.7" cy="61.2" r="8.9"/><path class="st0" d="M72.8 114.2c-17 0-33.4-6.7-45.4-18.8-1-1.1-.9-2.8.2-3.8 1-.9 2.6-.9 3.6 0 23 23 60.2 23 83.2 0 1-1 2.7-1 3.8 0s1 2.7 0 3.8c-12 12.1-28.4 18.9-45.4 18.8z"/></svg>